<?xml version="1.0" standalone="no"?><!DOCTYPE svg PUBLIC "-//W3C//DTD SVG 1.1//EN" "http://www.w3.org/Graphics/SVG/1.1/DTD/svg11.dtd"><svg t="1543840097118" class="icon" style="" viewBox="0 0 1024 1024" version="1.1" xmlns="http://www.w3.org/2000/svg" p-id="3692" xmlns:xlink="http://www.w3.org/1999/xlink" width="200" height="200"><defs><style type="text/css"></style></defs><path d="M926.84117 192.143135 96.204086 192.143135c-17.783015 0-32.204469 15.431457-32.204469 34.431184l0 47.095621c0 19.030425 14.421454 34.431184 32.204469 34.431184l830.637084 0c17.786085 0 32.201399-15.399735 32.201399-34.431184l0-47.095621C959.042569 207.575616 944.627255 192.143135 926.84117 192.143135zM926.84117 451.973882 96.204086 451.973882c-17.783015 0-32.204469 15.434527-32.204469 34.434254l0 47.095621c0 19.033495 14.421454 34.431184 32.204469 34.431184l830.637084 0c17.786085 0 32.201399-15.397688 32.201399-34.431184l0-47.095621C959.042569 467.409432 944.627255 451.973882 926.84117 451.973882zM926.84117 712.74607 96.204086 712.74607c-17.783015 0-32.204469 15.310707-32.204469 34.153868l0 46.711881c0 18.874883 14.421454 34.150798 32.204469 34.150798l830.637084 0c17.786085 0 32.201399-15.275915 32.201399-34.150798l0-46.711881C959.042569 728.056778 944.627255 712.74607 926.84117 712.74607z" p-id="3693"></path></svg>